<svg version="1.0" xmlns="http://www.w3.org/2000/svg"
 width="300.000000pt" height="132.000000pt" viewBox="0 0 300.000000 132.000000"
 preserveAspectRatio="xMidYMid meet">
<metadata>
Created by potrace 1.10, written by Peter Selinger 2001-2011
</metadata>
<g transform="translate(0.000000,135.000000) scale(0.0700000,-0.0800000)"
fill="#000000" stroke="none">
<path d="M460 1212 c0 -5 7 -15 16 -23 39 -32 59 -92 59 -179 0 -109 -9 -124
-185 -305 -111 -114 -140 -149 -153 -189 -33 -97 -16 -157 68 -242 59 -60 182
-130 260 -150 28 -7 26 -3 -31 59 -70 74 -88 117 -82 191 6 73 34 124 138 255
50 62 103 137 117 165 34 66 35 136 3 202 -33 68 -210 250 -210 216z m190
-250 c24 -63 24 -68 5 -123 -19 -52 -52 -104 -115 -179 -156 -185 -191 -289
-136 -407 29 -60 23 -61 -62 -5 -88 58 -134 137 -126 217 5 54 53 120 176 242
57 56 118 127 137 158 30 49 35 68 39 137 l5 81 28 -34 c16 -19 38 -58 49 -87z"/>
<path d="M2363 916 c-23 -20 -28 -32 -28 -71 0 -43 -2 -46 -22 -42 -20 4 -23
0 -23 -29 0 -30 3 -34 25 -34 l25 0 0 -115 0 -115 46 0 45 0 -3 115 -3 115 38
0 c35 0 37 1 37 34 0 34 0 34 -40 29 -39 -5 -40 -5 -40 24 0 40 21 57 59 48
27 -6 31 -3 37 20 9 35 -7 45 -73 45 -41 0 -58 -5 -80 -24z m33 -45 c-19 -21
-15 -53 12 -83 13 -16 13 -20 -2 -42 -11 -17 -17 -50 -18 -103 l-1 -78 -6 81
c-5 61 -11 87 -25 103 -19 21 -19 23 -3 50 9 16 17 37 17 47 0 19 30 57 38 49
3 -3 -3 -14 -12 -24z"/>
<path d="M2157 923 c-4 -3 -7 -21 -7 -40 0 -32 1 -33 45 -33 39 0 45 3 51 25
4 15 1 32 -6 40 -12 15 -71 21 -83 8z"/>
<path d="M1053 910 c-22 -9 -21 -10 33 -135 48 -113 54 -134 54 -196 l0 -69
50 0 50 0 0 68 c0 60 6 83 55 196 30 71 54 130 52 132 -3 3 -40 6 -64 5 -17
-1 -27 -16 -52 -81 -17 -43 -31 -87 -31 -95 0 -9 -4 -13 -10 -10 -5 3 -10 15
-10 25 0 34 -51 150 -71 160 -21 12 -27 12 -56 0z m157 -199 c17 26 20 2 5
-34 -8 -20 -15 -46 -15 -57 0 -36 -15 -21 -27 28 -6 26 -15 55 -19 66 -7 18
-6 18 20 1 23 -15 29 -16 36 -4z"/>
<path d="M775 889 c11 -35 9 -91 -5 -133 -7 -21 -53 -88 -103 -150 -49 -61
-101 -136 -115 -166 -32 -68 -35 -154 -7 -197 l19 -28 7 42 c11 62 33 97 114
184 41 43 85 98 99 121 47 81 55 212 17 310 -13 34 -36 50 -26 17z m20 -206
c-10 -79 -39 -128 -138 -233 -34 -36 -70 -76 -79 -90 l-17 -25 0 30 c-1 45 42
120 125 220 42 50 81 100 86 113 17 34 28 26 23 -15z"/>
<path d="M1357 799 c-13 -8 -15 -14 -7 -29 5 -10 10 -61 10 -113 0 -80 3 -98
21 -121 25 -32 70 -35 116 -7 31 19 31 19 49 0 20 -22 47 -25 60 -6 5 6 8 74
6 150 l-4 137 -44 0 -44 0 0 -98 c0 -104 -7 -122 -47 -122 -22 0 -23 3 -23 94
0 73 -4 98 -16 110 -18 18 -51 20 -77 5z m74 -218 c22 -27 10 -42 -16 -21 -11
9 -15 32 -13 84 2 65 2 67 5 17 3 -35 11 -64 24 -80z m139 9 c0 -22 -4 -28
-15 -24 -18 7 -19 26 -3 42 17 17 18 16 18 -18z"/>
<path d="M1680 660 l0 -150 45 0 44 0 3 101 c3 86 6 104 21 113 15 9 21 7 33
-9 12 -16 15 -41 12 -112 l-4 -93 49 0 48 0 -2 101 c-1 86 1 103 15 111 37 21
46 3 46 -90 0 -105 10 -125 60 -120 29 2 35 7 34 26 0 12 -1 67 -2 122 -2 93
-4 103 -27 125 -29 30 -67 32 -110 5 -32 -20 -32 -20 -50 0 -23 25 -61 25
-101 1 -30 -18 -31 -18 -42 0 -8 12 -24 19 -42 19 l-30 0 0 -150z m220 84 c11
-11 12 -16 2 -26 -7 -7 -13 -41 -13 -77 l-2 -66 -7 63 c-4 39 -15 74 -28 91
-12 16 -18 32 -15 35 9 8 45 -3 63 -20z m133 5 c8 -11 12 -29 10 -40 -5 -18
-8 -16 -29 15 -13 19 -24 37 -24 40 0 14 30 4 43 -15z m-289 5 c13 -5 14 -10
4 -27 -7 -12 -15 -44 -19 -72 -6 -46 -6 -44 -8 28 0 42 1 77 3 77 2 0 11 -3
20 -6z"/>
<path d="M2128 792 c-6 -27 2 -52 18 -52 21 0 27 -42 22 -141 l-5 -89 49 0 50
0 -3 130 c-5 150 -11 162 -83 166 -34 2 -45 -1 -48 -14z m86 -48 c10 -27 7
-176 -4 -169 -5 3 -10 39 -10 80 0 41 -4 77 -10 80 -15 9 -12 25 4 25 8 0 17
-7 20 -16z"/>
<path d="M2533 802 c-9 -6 -3 -40 23 -137 37 -138 46 -155 75 -155 25 0 24
-15 -2 -41 -17 -17 -29 -20 -59 -15 -40 6 -50 -3 -50 -45 0 -17 7 -19 63 -19
66 0 91 13 120 60 20 32 99 330 92 348 -3 9 -17 12 -42 10 l-38 -3 -24 -117
c-23 -110 -41 -144 -41 -78 0 35 -27 157 -41 182 -10 18 -54 24 -76 10z m62
-84 c5 -18 3 -28 -4 -28 -6 0 -11 6 -11 13 0 6 -3 23 -6 37 -5 17 -4 22 4 15
6 -5 14 -22 17 -37z m156 20 c-10 -26 -11 -32 -11 -53 0 -8 -5 -15 -10 -15
-11 0 -4 42 12 73 13 25 19 21 9 -5z m-137 -98 c8 -51 41 -84 67 -67 11 7 24
26 28 42 7 22 9 24 10 9 1 -25 -27 -124 -36 -124 -13 0 -56 56 -67 89 -21 59
-27 91 -17 91 4 0 11 -18 15 -40z"/>
<path d="M840 510 c0 -67 -7 -79 -116 -190 -82 -84 -104 -119 -104 -166 0 -23
2 -22 36 16 20 22 60 53 89 70 64 37 118 95 135 144 13 40 2 107 -25 156 -14
24 -14 22 -15 -30z m14 -112 c-8 -28 -43 -79 -64 -95 -8 -6 -33 -21 -55 -33
l-40 -22 48 47 c26 25 47 50 47 54 0 5 7 11 15 15 8 3 20 17 27 31 14 31 32
33 22 3z"/>
</g>
</svg>
